<svg width="120" height="59" viewBox="0 0 120 59" fill="none" xmlns="http://www.w3.org/2000/svg">
<rect y="19.3022" width="43.9717" height="43.9717" transform="rotate(-26.0382 0 19.3022)" fill="#E19E64"/>
<path d="M7.91492 21.5979L43.4727 4.22584L60.8447 39.7836L25.2869 57.1557L7.91492 21.5979Z" fill="#E94C59"/>
<path d="M14.9504 23.3567L50.5082 5.98468L67.8802 41.5425L32.3224 58.9145L14.9504 23.3567Z" fill="#87D0B5"/>
<path d="M34.9997 36.0614H37.9053V42.4267H41.796V44.6798H34.9997V36.0614Z" fill="#333333"/>
<path d="M49.678 41.3063C49.678 41.3473 49.6657 41.5649 49.6411 41.9588H44.9625C45.061 42.2133 45.2251 42.4103 45.455 42.5498C45.6848 42.6811 45.9721 42.7468 46.3168 42.7468C46.6123 42.7468 46.8585 42.7099 47.0555 42.636C47.2607 42.5621 47.4823 42.4349 47.7204 42.2543L49.1732 43.7195C48.5166 44.4418 47.5357 44.8029 46.2306 44.8029C45.418 44.8029 44.7039 44.6552 44.0883 44.3597C43.4727 44.056 42.9966 43.6374 42.6601 43.1039C42.3236 42.5703 42.1553 41.9712 42.1553 41.3063C42.1553 40.6332 42.3195 40.0341 42.6478 39.5087C42.9843 38.9752 43.4399 38.5607 44.0144 38.2652C44.5972 37.9697 45.2498 37.822 45.9721 37.822C46.6533 37.822 47.273 37.9574 47.8312 38.2283C48.3975 38.4991 48.8449 38.8972 49.1732 39.4226C49.5097 39.9479 49.678 40.5758 49.678 41.3063ZM45.9967 39.718C45.7094 39.718 45.4714 39.796 45.2826 39.952C45.0938 40.1079 44.9707 40.3295 44.9132 40.6168H47.0802C47.0227 40.3378 46.8996 40.1202 46.7108 39.9643C46.522 39.8001 46.284 39.718 45.9967 39.718Z" fill="#333333"/>
<path d="M54.1143 44.8029C53.3674 44.8029 52.6943 44.6552 52.0951 44.3597C51.5041 44.056 51.0404 43.6415 50.7038 43.1162C50.3673 42.5827 50.1991 41.9794 50.1991 41.3063C50.1991 40.6332 50.3673 40.0341 50.7038 39.5087C51.0404 38.9752 51.5041 38.5607 52.0951 38.2652C52.6943 37.9697 53.3674 37.822 54.1143 37.822C54.8694 37.822 55.5425 37.9697 56.1335 38.2652C56.7327 38.5607 57.1964 38.9752 57.5247 39.5087C57.8613 40.0341 58.0295 40.6332 58.0295 41.3063C58.0295 41.9794 57.8613 42.5827 57.5247 43.1162C57.1964 43.6415 56.7327 44.056 56.1335 44.3597C55.5425 44.6552 54.8694 44.8029 54.1143 44.8029ZM54.1143 42.636C54.4344 42.636 54.6971 42.5211 54.9023 42.2913C55.1075 42.0532 55.2101 41.7249 55.2101 41.3063C55.2101 40.8877 55.1075 40.5635 54.9023 40.3336C54.6971 40.1038 54.4344 39.9889 54.1143 39.9889C53.7942 39.9889 53.5315 40.1038 53.3263 40.3336C53.1211 40.5635 53.0185 40.8877 53.0185 41.3063C53.0185 41.7249 53.1211 42.0532 53.3263 42.2913C53.5315 42.5211 53.7942 42.636 54.1143 42.636Z" fill="#333333"/>
<path d="M41.8945 26.1026C42.4034 26.2914 42.7973 26.5664 43.0764 26.9275C43.3555 27.2887 43.495 27.7237 43.495 28.2326C43.495 28.9878 43.1831 29.5746 42.5593 29.9932C41.9355 30.4036 41.0326 30.6088 39.8507 30.6088H34.9997V21.9904H39.6044C40.7535 21.9904 41.6195 22.1956 42.2023 22.606C42.7932 23.0164 43.0887 23.5622 43.0887 24.2435C43.0887 24.6457 42.9861 25.0068 42.7809 25.327C42.5839 25.6471 42.2884 25.9056 41.8945 26.1026ZM37.8561 24.0219V25.3023H39.2104C39.8424 25.3023 40.1585 25.0889 40.1585 24.6621C40.1585 24.2353 39.8424 24.0219 39.2104 24.0219H37.8561ZM39.6044 28.5773C40.2446 28.5773 40.5648 28.3516 40.5648 27.9002C40.5648 27.4487 40.2446 27.223 39.6044 27.223H37.8561V28.5773H39.6044Z" fill="#333333"/>
<path d="M51.7988 23.8741V30.6088H49.1517V29.9686C48.9054 30.2231 48.6181 30.416 48.2898 30.5473C47.9615 30.6704 47.6126 30.732 47.2433 30.732C46.3896 30.732 45.7043 30.4734 45.1872 29.9563C44.6701 29.431 44.4115 28.643 44.4115 27.5924V23.8741H47.194V27.1122C47.194 27.5719 47.2679 27.9002 47.4157 28.0972C47.5634 28.2942 47.7809 28.3927 48.0682 28.3927C48.3391 28.3927 48.5648 28.286 48.7454 28.0726C48.9259 27.8509 49.0162 27.5062 49.0162 27.0383V23.8741H51.7988Z" fill="#333333"/>
<path d="M60.3956 23.8741V30.6088H57.7485V29.9686C57.5022 30.2231 57.215 30.416 56.8866 30.5473C56.5583 30.6704 56.2095 30.732 55.8401 30.732C54.9865 30.732 54.3011 30.4734 53.784 29.9563C53.2669 29.431 53.0083 28.643 53.0083 27.5924V23.8741H55.7909V27.1122C55.7909 27.5719 55.8647 27.9002 56.0125 28.0972C56.1602 28.2942 56.3777 28.3927 56.665 28.3927C56.9359 28.3927 57.1616 28.286 57.3422 28.0726C57.5228 27.8509 57.613 27.5062 57.613 27.0383V23.8741H60.3956Z" fill="#333333"/>
<path d="M64.2769 24.6005C64.7693 24.0342 65.4957 23.751 66.4561 23.751V26.2134C66.2345 26.1806 66.0293 26.1642 65.8405 26.1642C64.8884 26.1642 64.4123 26.6485 64.4123 27.617V30.6088H61.6298V23.8741H64.2769V24.6005Z" fill="#333333"/>
<path d="M72.3869 30.3749C71.9682 30.6129 71.3978 30.732 70.6755 30.732C69.7316 30.732 69.0051 30.5062 68.4962 30.0548C67.9873 29.5951 67.7329 28.9098 67.7329 27.9987V26.275H66.8095V24.2435H67.7329V22.3597H70.5154V24.2435H71.8944V26.275H70.5154V27.9741C70.5154 28.1793 70.5688 28.3393 70.6755 28.4542C70.7822 28.5691 70.9217 28.6266 71.0941 28.6266C71.3321 28.6266 71.5414 28.565 71.722 28.4419L72.3869 30.3749Z" fill="#333333"/>
<path d="M75.723 30.732C75.1484 30.732 74.582 30.6704 74.0239 30.5473C73.4657 30.4242 73.0143 30.2641 72.6696 30.0671L73.4329 28.2326C73.7448 28.4214 74.1142 28.5691 74.541 28.6758C74.9678 28.7825 75.3823 28.8359 75.7845 28.8359C76.1046 28.8359 76.3262 28.8113 76.4494 28.762C76.5807 28.7046 76.6464 28.6225 76.6464 28.5158C76.6464 28.4091 76.5643 28.3352 76.4001 28.2942C76.2442 28.2531 75.9856 28.2121 75.6245 28.171C75.0745 28.1054 74.6067 28.0233 74.2209 27.9248C73.8351 27.8181 73.4945 27.617 73.199 27.3215C72.9117 27.026 72.7681 26.6033 72.7681 26.0534C72.7681 25.6183 72.8994 25.2285 73.162 24.8837C73.4247 24.539 73.8146 24.264 74.3317 24.0588C74.857 23.8536 75.4849 23.751 76.2154 23.751C76.7243 23.751 77.2209 23.8003 77.7052 23.8988C78.1977 23.989 78.6163 24.1245 78.961 24.3051L78.1977 26.1396C77.6067 25.8112 76.9583 25.6471 76.2524 25.6471C75.645 25.6471 75.3413 25.7538 75.3413 25.9672C75.3413 26.0739 75.4234 26.1519 75.5875 26.2011C75.7517 26.2422 76.0102 26.2832 76.3632 26.3242C76.9131 26.3899 77.3769 26.4761 77.7544 26.5828C78.1402 26.6895 78.4768 26.8906 78.764 27.1861C79.0595 27.4816 79.2073 27.9043 79.2073 28.4542C79.2073 28.8728 79.0759 29.2545 78.8133 29.5993C78.5506 29.944 78.1566 30.219 77.6313 30.4242C77.106 30.6294 76.4699 30.732 75.723 30.732Z" fill="#333333"/>
<path d="M87.4124 23.8741V30.6088H84.7653V29.9686C84.5191 30.2231 84.2318 30.416 83.9035 30.5473C83.5751 30.6704 83.2263 30.732 82.8569 30.732C82.0033 30.732 81.3179 30.4734 80.8008 29.9563C80.2837 29.431 80.0252 28.643 80.0252 27.5924V23.8741H82.8077V27.1122C82.8077 27.5719 82.8816 27.9002 83.0293 28.0972C83.1771 28.2942 83.3946 28.3927 83.6818 28.3927C83.9527 28.3927 84.1784 28.286 84.359 28.0726C84.5396 27.8509 84.6299 27.5062 84.6299 27.0383V23.8741H87.4124Z" fill="#333333"/>
<path d="M93.1405 23.751C93.7315 23.751 94.2732 23.8947 94.7657 24.1819C95.2664 24.461 95.6604 24.8673 95.9477 25.4008C96.2431 25.9344 96.3909 26.55 96.3909 27.2476C96.3909 27.9453 96.2431 28.5609 95.9477 29.0945C95.6604 29.6198 95.2664 30.0261 94.7657 30.3134C94.2732 30.5924 93.7315 30.732 93.1405 30.732C92.3936 30.732 91.8231 30.5391 91.4291 30.1533V32.9974H88.6466V23.8741H91.2937V24.4282C91.6959 23.9767 92.3115 23.751 93.1405 23.751ZM92.4757 28.565C92.7958 28.565 93.0584 28.4501 93.2636 28.2203C93.4688 27.9905 93.5714 27.6663 93.5714 27.2476C93.5714 26.829 93.4688 26.5048 93.2636 26.275C93.0584 26.037 92.7958 25.9179 92.4757 25.9179C92.1555 25.9179 91.8929 26.037 91.6877 26.275C91.4825 26.5048 91.3799 26.829 91.3799 27.2476C91.3799 27.6663 91.4825 27.9905 91.6877 28.2203C91.8929 28.4501 92.1555 28.565 92.4757 28.565Z" fill="#333333"/>
<path d="M104.433 27.2353C104.433 27.2764 104.421 27.4939 104.396 27.8879H99.7176C99.8161 28.1423 99.9802 28.3393 100.21 28.4789C100.44 28.6102 100.727 28.6758 101.072 28.6758C101.367 28.6758 101.614 28.6389 101.811 28.565C102.016 28.4912 102.237 28.3639 102.475 28.1834L103.928 29.6485C103.272 30.3708 102.291 30.732 100.986 30.732C100.173 30.732 99.459 30.5842 98.8434 30.2887C98.2278 29.985 97.7517 29.5664 97.4152 29.0329C97.0787 28.4994 96.9104 27.9002 96.9104 27.2353C96.9104 26.5623 97.0746 25.9631 97.4029 25.4378C97.7394 24.9042 98.195 24.4897 98.7695 24.1942C99.3523 23.8988 100.005 23.751 100.727 23.751C101.408 23.751 102.028 23.8864 102.586 24.1573C103.153 24.4282 103.6 24.8263 103.928 25.3516C104.265 25.8769 104.433 26.5048 104.433 27.2353ZM100.752 25.6471C100.464 25.6471 100.226 25.7251 100.038 25.881C99.8489 26.037 99.7258 26.2586 99.6683 26.5459H101.835C101.778 26.2668 101.655 26.0493 101.466 25.8933C101.277 25.7292 101.039 25.6471 100.752 25.6471Z" fill="#333333"/>
<path d="M107.958 24.6005C108.451 24.0342 109.177 23.751 110.138 23.751V26.2134C109.916 26.1806 109.711 26.1642 109.522 26.1642C108.57 26.1642 108.094 26.6485 108.094 27.617V30.6088H105.311V23.8741H107.958V24.6005Z" fill="#333333"/>
</svg>
