<svg xmlns="http://www.w3.org/2000/svg" viewBox="0 0 186.07 185.7"><metadata><?xpacket begin="﻿" id="W5M0MpCehiHzreSzNTczkc9d"?>
<x:xmpmeta xmlns:x="adobe:ns:meta/" x:xmptk="Adobe XMP Core 5.6-c148 79.164036, 2019/08/13-01:06:57        ">
   <rdf:RDF xmlns:rdf="http://www.w3.org/1999/02/22-rdf-syntax-ns#">
      <rdf:Description rdf:about=""
            xmlns:xmp="http://ns.adobe.com/xap/1.0/"
            xmlns:xmpMM="http://ns.adobe.com/xap/1.0/mm/"
            xmlns:stEvt="http://ns.adobe.com/xap/1.0/sType/ResourceEvent#">
         <xmp:MetadataDate>2020-09-22T20:43:39+02:00</xmp:MetadataDate>
         <xmpMM:InstanceID>xmp.iid:9aac048d-3ecd-9c4a-ba0b-08a0b87f6eff</xmpMM:InstanceID>
         <xmpMM:DocumentID>xmp.did:49d6a28c-81e8-e84e-859d-870b92e3f76d</xmpMM:DocumentID>
         <xmpMM:OriginalDocumentID>xmp.did:49d6a28c-81e8-e84e-859d-870b92e3f76d</xmpMM:OriginalDocumentID>
         <xmpMM:History>
            <rdf:Seq>
               <rdf:li>
                  <rdf:Description>
                     <stEvt:action>saved</stEvt:action>
                     <stEvt:instanceID>xmp.iid:49d6a28c-81e8-e84e-859d-870b92e3f76d</stEvt:instanceID>
                     <stEvt:when>2020-09-22T20:43:38+02:00</stEvt:when>
                     <stEvt:softwareAgent>Adobe Bridge 2020 (Windows)</stEvt:softwareAgent>
                     <stEvt:changed>/metadata</stEvt:changed>
                  </rdf:Description>
               </rdf:li>
               <rdf:li>
                  <rdf:Description>
                     <stEvt:action>saved</stEvt:action>
                     <stEvt:instanceID>xmp.iid:9aac048d-3ecd-9c4a-ba0b-08a0b87f6eff</stEvt:instanceID>
                     <stEvt:when>2020-09-22T20:43:39+02:00</stEvt:when>
                     <stEvt:softwareAgent>Adobe Bridge 2020 (Windows)</stEvt:softwareAgent>
                     <stEvt:changed>/metadata</stEvt:changed>
                  </rdf:Description>
               </rdf:li>
            </rdf:Seq>
         </xmpMM:History>
      </rdf:Description>
   </rdf:RDF>
</x:xmpmeta>
                                                                                                    
                                                                                                    
                                                                                                    
                                                                                                    
                                                                                                    
                                                                                                    
                                                                                                    
                                                                                                    
                                                                                                    
                                                                                                    
                                                                                                    
                                                                                                    
                                                                                                    
                                                                                                    
                                                                                                    
                                                             
<?xpacket end="w"?></metadata>
<defs><style>.cls-1{font-size:14px;fill:#464c53;font-family:CarlMarx-Bold, CarlMarx;font-weight:700;}.cls-2,.cls-3{fill:none;stroke:#434041;stroke-miterlimit:10;}.cls-2{stroke-width:2px;}.cls-3{stroke-width:4px;}.cls-4{fill:#b32324;}.cls-5{fill:#801517;}.cls-6{fill:#695b25;}.cls-7{fill:#4a4018;}.cls-8{fill:#a89b33;}.cls-9{fill:#918732;}.cls-10{fill:#de2a26;}.cls-11{fill:#c25a27;}.cls-12{fill:#ba5227;}.cls-13{fill:#f1845c;}.cls-14{fill:#b43225;}.cls-15{fill:#f79b7a;}.cls-16{fill:#fff;}.cls-17{fill:#d9d9d8;}.cls-18{fill:#faa21b;}.cls-19{fill:#fec763;}.cls-20{fill:#ee8922;}</style></defs><g id="Layer_2" data-name="Layer 2"><g id="Layer_1-2" data-name="Layer 1"><g id="DEZE"><g id="kleur"><text class="cls-1" transform="translate(41.49 61.33) rotate(-54.73)">B</text><text class="cls-1" transform="matrix(0.74, -0.67, 0.67, 0.74, 49.8, 51.01)">U</text><text class="cls-1" transform="translate(60.3 42.62) rotate(-29.51)">U</text><text class="cls-1" transform="matrix(0.96, -0.29, 0.29, 0.96, 72.43, 36.74)">R</text><text class="cls-1" transform="translate(85.18 33.75) rotate(-4.81)">T</text><text class="cls-1" transform="matrix(0.99, 0.12, -0.12, 0.99, 97.54, 33.47)">S</text><text class="cls-1" transform="matrix(0.94, 0.34, -0.34, 0.94, 110.29, 35.85)">U</text><text class="cls-1" transform="translate(122.64 41.16) rotate(32.23)">P</text><text class="cls-1" transform="matrix(0.71, 0.7, -0.7, 0.71, 133.35, 48.9)">E</text><text class="cls-1" transform="translate(141.81 58.26) rotate(56.58)">R</text><text class="cls-1" transform="translate(27.05 123.99) rotate(63.53)">L</text><text class="cls-1" transform="matrix(0.62, 0.79, -0.79, 0.62, 34.32, 136.41)">E</text><text class="cls-1" transform="matrix(0.77, 0.64, -0.64, 0.77, 44.34, 147.57)">O</text><text class="cls-1" transform="translate(56.99 156.69) rotate(29.2)"> </text><text class="cls-1" transform="translate(67.2 161.58) rotate(18.61)">V</text><text class="cls-1" transform="matrix(0.99, 0.11, -0.11, 0.99, 82.37, 165.54)">D</text><text class="cls-1" transform="matrix(1, -0.08, 0.08, 1, 97.94, 166.1)"> </text><text class="cls-1" transform="matrix(0.97, -0.26, 0.26, 0.97, 109.18, 164.51)">D</text><text class="cls-1" transform="matrix(0.89, -0.46, 0.46, 0.89, 124.22, 159.29)">R</text><text class="cls-1" transform="matrix(0.78, -0.63, 0.63, 0.78, 137.44, 151.11)">I</text><text class="cls-1" transform="matrix(0.64, -0.77, 0.77, 0.64, 147.01, 142.25)">F</text><text class="cls-1" transform="translate(155.73 130.33) rotate(-61.53)">T</text><polygon class="cls-2" points="93.03 3.21 98.81 1.09 104.27 3.92 110.26 2.54 115.33 6.02 121.45 5.41 126.03 9.5 132.18 9.66 136.22 14.29 142.3 15.22 145.73 20.33 151.64 22.01 154.4 27.51 160.06 29.91 162.11 35.71 167.42 38.81 168.72 44.82 173.6 48.56 174.15 54.68 178.52 59.01 178.29 65.15 182.09 69.98 181.09 76.05 184.25 81.33 182.5 87.22 184.98 92.85 182.5 98.48 184.25 104.38 181.09 109.65 182.09 115.72 178.29 120.55 178.52 126.69 174.15 131.02 173.6 137.15 168.72 140.88 167.42 146.89 162.11 149.99 160.06 155.79 154.4 158.2 151.64 163.69 145.73 165.37 142.3 170.48 136.22 171.41 132.18 176.04 126.03 176.2 121.45 180.29 115.33 179.68 110.26 183.16 104.27 181.79 98.81 184.61 93.03 182.49 87.26 184.61 81.8 181.79 75.81 183.16 70.74 179.68 64.62 180.29 60.03 176.2 53.89 176.04 49.85 171.41 43.77 170.48 40.34 165.37 34.43 163.69 31.67 158.2 26.01 155.79 23.96 149.99 18.65 146.89 17.35 140.88 12.47 137.15 11.93 131.02 7.55 126.69 7.78 120.55 3.98 115.72 4.98 109.65 1.82 104.38 3.57 98.48 1.09 92.85 3.57 87.22 1.82 81.33 4.98 76.05 3.98 69.98 7.78 65.15 7.55 59.01 11.93 54.68 12.47 48.56 17.35 44.82 18.65 38.81 23.96 35.71 26.01 29.91 31.67 27.51 34.43 22.01 40.34 20.33 43.77 15.22 49.85 14.29 53.89 9.66 60.03 9.5 64.62 5.41 70.74 6.02 75.81 2.54 81.8 3.92 87.26 1.09 93.03 3.21"/><polygon class="cls-3" points="93.03 9.95 98.37 8 103.42 10.61 108.97 9.34 113.65 12.56 119.31 11.99 123.55 15.77 129.24 15.92 132.97 20.21 138.59 21.07 141.76 25.79 147.23 27.34 149.78 32.42 155.01 34.65 156.91 40.01 161.82 42.88 163.03 48.43 167.54 51.89 168.04 57.56 172.09 61.55 171.88 67.23 175.39 71.7 174.46 77.32 177.39 82.19 175.77 87.65 178.06 92.85 175.77 98.06 177.39 103.51 174.46 108.38 175.39 114 171.88 118.47 172.09 124.15 168.04 128.15 167.54 133.81 163.03 137.27 161.82 142.83 156.91 145.69 155.01 151.05 149.78 153.28 147.23 158.36 141.76 159.92 138.59 164.64 132.97 165.5 129.24 169.78 123.55 169.93 119.31 173.71 113.65 173.14 108.97 176.37 103.42 175.1 98.37 177.71 93.03 175.75 87.7 177.71 82.64 175.1 77.1 176.37 72.42 173.14 66.76 173.71 62.52 169.93 56.84 169.78 53.1 165.5 47.48 164.64 44.31 159.92 38.84 158.36 36.29 153.28 31.06 151.05 29.16 145.69 24.25 142.83 23.04 137.27 18.53 133.81 18.03 128.15 13.98 124.15 14.19 118.47 10.68 114 11.61 108.38 8.68 103.51 10.3 98.06 8.01 92.85 10.3 87.65 8.68 82.19 11.61 77.32 10.68 71.7 14.19 67.23 13.98 61.55 18.03 57.56 18.53 51.89 23.04 48.43 24.25 42.88 29.16 40.01 31.06 34.65 36.29 32.42 38.84 27.34 44.31 25.79 47.48 21.07 53.1 20.21 56.84 15.92 62.52 15.77 66.76 11.99 72.42 12.56 77.1 9.34 82.64 10.61 87.7 8 93.03 9.95"/><path class="cls-2" d="M139.83,92.85A46.8,46.8,0,1,1,93,46.06,46.79,46.79,0,0,1,139.83,92.85Z"/><path class="cls-2" d="M136.88,92.85A43.85,43.85,0,1,1,93,49,43.84,43.84,0,0,1,136.88,92.85Z"/><path class="cls-4" d="M86.08,88.69c-1.43,9.34-4.83,12.42-12.23,12.42-6.93,0-10.61-4.64-11.66-12.5-.9-6.75,3.91-10.11,11.66-10.11C81.36,78.5,87.24,81.13,86.08,88.69Z"/><path class="cls-5" d="M70.64,80.07a8.08,8.08,0,0,1,3.71-.55c2.43.1,3.83.47,3.79,1s-2.45,1-4.58.73S70,80.88,70.64,80.07Z"/><path class="cls-6" d="M78.37,74.58a5.12,5.12,0,0,0-1.52,0c.31-.35.51-.55.44-.55s-1.13-2-2.32.28-1.12,6.18-1.12,6.18,0,.87.07.88c.29,0,1.12.06,1.12.06a12,12,0,0,1,.51-4.67,6,6,0,0,1,.86-1.63A2.37,2.37,0,0,1,78.33,75c1.33.34,1.59.65,1.9,1s.36-.2.38-.33A4.45,4.45,0,0,0,78.37,74.58Z"/><path class="cls-7" d="M79.82,75.37c-.24-.09-.49-.17-.73-.27-.53-.21-1.08-.28-1.62-.46a2.47,2.47,0,0,0-.62-.11c.31-.35.51-.55.44-.55s-.14-.14-.28-.3a6.23,6.23,0,0,0-2.18,3.49c-.3,1.15-.16,2.37-.73,3.44a.26.26,0,0,1-.26.14c0,.25,0,.57.08.57.29,0,1.12.06,1.12.06a12,12,0,0,1,.51-4.67,6,6,0,0,1,.86-1.63A2.37,2.37,0,0,1,78.33,75c1.33.34,1.59.65,1.9,1,.12.2.21.11.28,0A1.29,1.29,0,0,0,79.82,75.37Z"/><path class="cls-8" d="M79.16,75.11a5.88,5.88,0,0,0,5.15,5c4.81.84,5.88-.14,5.88-.14s.34-3-3.15-5S80.3,72.32,79.16,75.11Z"/><path class="cls-9" d="M87.48,79.17a32.53,32.53,0,0,1-3.57-1.45,12.63,12.63,0,0,1-1.42-1,10.87,10.87,0,0,1-3.16-1.94,3.59,3.59,0,0,0-.17.34,5.88,5.88,0,0,0,5.15,5c4,.7,5.41.14,5.77-.06A10.58,10.58,0,0,1,87.48,79.17Z"/><path class="cls-5" d="M75.15,99.11c-3.58.37-8.73-1.18-7.31,0a6.43,6.43,0,0,0,2,1.31,12.2,12.2,0,0,0,4,.64c7.4,0,10.8-3.08,12.23-12.42a8.18,8.18,0,0,0-1.2-6.31,45.76,45.76,0,0,1-1.14,6.22C82.85,91.66,79.26,98.69,75.15,99.11Z"/><path class="cls-10" d="M65.75,94s-1.92-3.95-2-6.77,1.4-5.17,2.48-5.49.57.35,1.4.49,2.65.88,3.14.7,1.26-.77,1.61-.1a2.34,2.34,0,0,1-.77,2.41c-.56.24-1.5.83-2.1.52s-2.33.14-2.86-.25S63.72,87.08,65.75,94Z"/><path class="cls-11" d="M84.19,88.82s-.15,5.5.06,6.49c.31,1.37,5,3.58,9.11,5.27s15.21,3.82,20.39,2.19,9.89-4.11,10.9-8.5,1.46-13.47-.6-16.18S87.44,85.58,84.19,88.82Z"/><path class="cls-12" d="M124.59,79.1c-.32,1.34-.88,2.65-1.3,4.07-.75,2.5-2.06,4.81-2.84,7.26a2.57,2.57,0,0,1,0,1.07c-.71,3.17-2.44,6.38-5.28,8.09-1.6,1-3.75,1-5.55,1-2,0-4,.09-6.06,0a37.83,37.83,0,0,1-11.33-2.25,26,26,0,0,1-8.06-4,7.33,7.33,0,0,0,.08,1c.31,1.37,5,3.58,9.11,5.27s15.21,3.82,20.39,2.19,9.89-4.11,10.9-8.5C125.55,90.32,126,82.58,124.59,79.1Z"/><path class="cls-13" d="M106.13,97.46c-9.37-.37-19.93-4.65-21.36-6.67a3.07,3.07,0,0,1-.36-3,6.28,6.28,0,0,1,4.48-3.36c3.93-.82,8.29-3.66,13.35-8.68,3-3,6.39-4.45,10-4.3a16.37,16.37,0,0,1,6.88,2c3.7,1.93,6,4.33,5.92,10.28-.06,5.11-1.6,11.24-13,13.33a27.17,27.17,0,0,1-5.91.35Z"/><path class="cls-14" d="M118.71,74.32c-3.32-1.73-9.54-4.13-15.82,2.11-6.9,6.85-11.35,8.41-13.81,8.92s-5,2.86-3.56,4.91,16,7.82,26.35,5.94,12.21-7,12.27-12.44S122.25,76.16,118.71,74.32Z"/><path class="cls-15" d="M88,88a9.94,9.94,0,0,1,5.55-1.21,8.07,8.07,0,0,0,6.35-2.7,5.58,5.58,0,0,1-5.11,3.26C90.6,87.48,89.7,87,88,88Z"/><path class="cls-16" d="M116.85,78.79a5.57,5.57,0,0,0-3.61.08,2.11,2.11,0,0,0-.78,3.58c1.06.85,4.9.71,5.56.22A2.53,2.53,0,0,0,116.85,78.79Z"/><path class="cls-17" d="M116.42,79.29a4.17,4.17,0,0,0-2.7.07,1.57,1.57,0,0,0-.58,2.67c.79.63,3.67.53,4.15.17A1.9,1.9,0,0,0,116.42,79.29Z"/><path class="cls-15" d="M99.83,90s.25,1,2.64,2.18a7.69,7.69,0,0,0,5.81.26c.58-.37-2.81.63-5-.37A24.37,24.37,0,0,1,99.83,90Z"/><path class="cls-15" d="M107.71,73.16A8.47,8.47,0,0,1,106,76.29c-1.2,1.29-2.9,1.72-2.83,2.79s.17-.39,1.21-1a11.63,11.63,0,0,0,3.39-3.26A1.66,1.66,0,0,0,107.71,73.16Z"/><path class="cls-15" d="M107.87,81.83s1.52,2-.13,3.13-.2.41.8,0S108.53,82.35,107.87,81.83Z"/><path class="cls-15" d="M122.21,83.34s-2.45,3.71-3.91,3.49c-1.23-.18-4.54,2.42-4.73,3.21s-.4.64,1.23-.52,2.51-2.1,4-2.26C120.61,87.08,122.19,83.94,122.21,83.34Z"/><path class="cls-18" d="M122.72,97c1.93,8-8.93,14-23.28,17.49s-26.66,3.56-28.71-4.88c-2-8.29,8.92-14,23.28-17.49S120.73,88.8,122.72,97Z"/><path class="cls-19" d="M84.19,108.11c-.14-3.84-1.56-8.58-2.72-11.88-1.13.51-2.2,1-3.19,1.6C81.65,101.06,84.19,108.11,84.19,108.11Z"/><path class="cls-19" d="M90.58,93c-1.38.38-2.72.79-4,1.23,3.65,4.17,6,12.73,6,12.73C92.72,102.58,91.6,97,90.58,93Z"/><path class="cls-19" d="M101.4,105.21c.51-4.49-.23-10.19-1-14.39-1.38.23-2.8.5-4.24.82C99.63,96.27,101.4,105.21,101.4,105.21Z"/><path class="cls-19" d="M110.08,90c-1,0-2.15,0-3.28.07a46.28,46.28,0,0,1,2.65,11.48A46.58,46.58,0,0,0,110.08,90Z"/><path class="cls-20" d="M79.16,97.36c-.29.16-.6.31-.88.47,3.37,3.23,5.91,10.28,5.91,10.28a23.37,23.37,0,0,0-.3-2.91A29.37,29.37,0,0,0,79.16,97.36Z"/><path class="cls-20" d="M87.52,94l-1,.31c3.65,4.17,6,12.73,6,12.73a26.35,26.35,0,0,0,0-2.66C91.66,101.73,89.9,97,87.52,94Z"/><path class="cls-20" d="M97.14,91.44l-1,.2c3.46,4.63,5.23,13.57,5.23,13.57.09-.79.14-1.63.16-2.48C100.91,100.07,99.43,94.87,97.14,91.44Z"/><path class="cls-20" d="M107.65,90l-.85,0a46.28,46.28,0,0,1,2.65,11.48c.16-.7.28-1.45.38-2.21A45.46,45.46,0,0,0,107.65,90Z"/><path class="cls-20" d="M118.05,98.82c-1.53,5-8.48,9.65-19.18,12.36-8.67,2.19-18.42,4.16-24.38,3.53,5.11,3.06,14.48,2.34,25-.2C113.79,111,124.65,105,122.72,97c-.86-3.55-3.65-5.59-7.7-6.48C116.77,92.42,119,95.62,118.05,98.82Z"/></g></g></g></g></svg>